<?xml version="1.0" standalone="no"?>
<!DOCTYPE svg PUBLIC "-//W3C//DTD SVG 20010904//EN"
 "http://www.w3.org/TR/2001/REC-SVG-20010904/DTD/svg10.dtd">
<svg version="1.0" xmlns="http://www.w3.org/2000/svg"
 width="1316.000000pt" height="744.000000pt" viewBox="0 0 1316.000000 744.000000"
 preserveAspectRatio="xMidYMid meet">

<g transform="translate(0.000000,744.000000) scale(0.100000,-0.100000)"
fill="#000000" stroke="none">
<path d="M1 5638 c1 -1022 5 -1760 10 -1703 74 901 579 1747 1430 2392 846
642 2009 1040 3219 1102 86 4 -913 9 -2252 10 l-2408 1 1 -1802z"/>
<path d="M8510 7429 c1210 -62 2373 -460 3219 -1102 805 -610 1300 -1397 1415
-2252 12 -87 14 129 15 1633 l1 1732 -2402 -1 c-1337 -1 -2334 -6 -2248 -10z"/>
<path d="M5239 5923 c82 -40 148 -99 180 -162 53 -102 51 -50 51 -1531 0 -871
-4 -1391 -10 -1418 -17 -71 -52 -134 -102 -185 -46 -46 -154 -107 -190 -107
-9 0 -20 -4 -23 -10 -4 -7 155 -10 469 -10 262 0 476 3 476 8 0 4 -21 15 -48
24 -153 55 -229 163 -252 360 -16 134 -15 133 -50 96 -25 -26 -30 -28 -30 -12
-1 18 -1 18 -14 1 -12 -16 -15 -8 -21 64 -6 64 -10 78 -18 64 -9 -17 -5 -375
4 -414 2 -8 -4 -17 -13 -19 -17 -3 -18 28 -18 551 0 304 -3 615 -7 690 l-6
137 956 0 957 0 0 70 0 70 -479 0 c-373 0 -482 3 -488 13 -4 6 -8 388 -9 847
0 459 -1 852 -2 873 l-2 37 -75 0 -75 0 0 -885 0 -885 -387 2 -388 3 -3 798
c-1 438 1 797 5 797 5 0 44 -29 88 -64 44 -35 83 -62 87 -60 4 3 12 22 18 43
25 95 124 202 218 236 32 12 -21 14 -418 14 l-455 0 74 -36z"/>
<path d="M7165 5921 c115 -54 187 -139 209 -246 13 -68 10 -1335 -4 -1335 -6
0 -10 9 -10 20 0 11 -7 20 -15 20 -8 0 -15 -7 -15 -15 0 -8 -5 -15 -10 -15 -6
0 -13 7 -16 15 -4 8 -14 16 -23 17 -9 0 7 4 34 8 l50 7 -60 0 c-33 1 -103 -3
-155 -7 l-95 -7 83 -1 c46 -1 82 -6 82 -12 0 -5 -8 -9 -17 -8 -54 4 -193 -3
-193 -11 0 -5 55 -6 123 -4 67 3 119 2 115 -2 -3 -3 -46 -8 -95 -11 -159 -7
-227 -14 -288 -28 -57 -13 -49 -14 180 -15 132 -1 293 -4 358 -8 l117 -6 2
404 c1 222 2 476 2 564 1 88 2 243 4 345 l3 185 27 -31 c39 -45 151 -118 156
-102 50 170 118 253 246 300 43 16 27 16 -415 17 l-460 0 80 -38z"/>
<path d="M7662 4610 c0 -19 2 -27 5 -17 2 9 2 25 0 35 -3 9 -5 1 -5 -18z"/>
<path d="M7585 4619 c-14 -22 -24 -534 -24 -1248 0 -381 -2 -695 -4 -698 -3
-2 -11 2 -19 10 -12 13 -14 105 -10 626 l4 611 -761 0 c-766 0 -789 -1 -746
-32 6 -4 0 -8 -13 -8 -13 0 -20 -4 -17 -10 3 -5 2 -10 -3 -10 -5 0 -9 -7 -9
-15 0 -8 7 -15 14 -15 8 0 11 -4 8 -10 -3 -5 0 -11 7 -12 7 0 18 -2 23 -3 6
-2 90 -3 188 -4 l177 -1 0 -650 0 -650 75 0 75 0 0 646 c0 609 1 645 18 642
16 -3 17 -43 20 -646 l2 -643 68 3 67 3 3 648 2 647 324 0 c179 0 326 -3 328
-7 2 -5 1 -235 -2 -513 -5 -487 -6 -507 -26 -551 -39 -84 -122 -159 -215 -195
-24 -9 -48 -21 -54 -26 -5 -4 203 -8 463 -8 275 0 472 4 472 9 0 5 -20 16 -45
24 -66 23 -153 85 -191 136 -19 25 -44 75 -56 111 -21 64 -22 78 -29 835 -8
938 -9 979 -19 940 -4 -16 -8 -24 -9 -16 0 8 -4 11 -8 8 -3 -4 -12 1 -19 11
-12 15 -13 13 -7 -17 5 -26 3 -33 -8 -29 -9 3 -13 16 -11 34 2 23 1 26 -8 14
-9 -12 -10 -8 -6 15 7 35 -7 65 -19 44z"/>
<path d="M6775 4300 c-3 -5 1 -10 10 -10 9 0 13 5 10 10 -3 6 -8 10 -10 10 -2
0 -7 -4 -10 -10z"/>
<path d="M1 1798 l-1 -1798 2298 2 c1263 1 2277 3 2252 5 -1683 123 -3145 840
-3941 1933 -351 481 -553 1008 -598 1555 -5 57 -9 -678 -10 -1697z"/>
<path d="M13143 3351 c-57 -473 -263 -974 -582 -1411 -796 -1093 -2258 -1810
-3941 -1933 -25 -2 987 -4 2248 -5 l2292 -2 0 1725 c0 949 -1 1725 -3 1725 -1
0 -8 -44 -14 -99z"/>
<path d="M5400 1728 l0 -268 34 0 c33 0 35 2 41 45 4 25 5 91 3 147 -8 167
-16 168 172 -29 91 -95 168 -173 171 -173 4 0 9 10 13 23 8 29 8 471 0 491 -4
10 -18 16 -40 16 l-34 0 0 -177 -1 -178 -179 185 -179 185 -1 -267z"/>
<path d="M4542 1723 l3 -258 38 -3 37 -3 0 110 0 111 125 0 124 0 3 -107 3
-108 43 -3 42 -3 -2 258 -3 258 -37 3 -38 3 0 -110 0 -110 -122 -3 c-68 -2
-126 -2 -130 0 -5 2 -8 52 -8 113 l0 109 -40 0 -40 0 2 -257z"/>
<path d="M5130 1720 l0 -261 38 3 37 3 0 255 0 255 -37 3 -38 3 0 -261z"/>
<path d="M6022 1973 l-63 -4 3 -32 3 -32 75 -5 75 -5 3 -217 2 -218 40 0 40 0
0 220 0 219 82 3 c81 3 82 3 89 32 5 16 6 33 3 38 -5 8 -218 8 -352 1z"/>
<path d="M6657 1966 c-117 -43 -200 -179 -178 -291 18 -86 55 -139 130 -183
40 -23 57 -27 126 -27 68 0 88 5 133 28 42 22 53 32 50 49 -5 37 -31 43 -80
20 -93 -46 -211 -16 -255 63 -27 47 -31 131 -9 173 19 36 65 78 99 91 42 16
121 13 168 -6 41 -16 42 -16 61 6 25 32 23 38 -24 62 -54 28 -167 35 -221 15z"/>
<path d="M7203 1964 c-23 -8 -61 -33 -86 -54 -118 -104 -115 -280 7 -387 151
-133 397 -39 431 164 17 104 -41 220 -132 264 -60 29 -160 35 -220 13z m183
-80 c54 -26 78 -68 82 -144 7 -119 -48 -189 -153 -198 -68 -6 -96 1 -135 34
-97 83 -90 243 15 301 49 28 140 31 191 7z"/>
<path d="M7763 1973 l-63 -4 0 -256 0 -256 123 5 c100 4 131 9 170 28 148 70
201 247 114 377 -58 86 -159 118 -344 106z m224 -96 c71 -37 101 -136 69 -222
-31 -80 -95 -115 -213 -115 l-63 0 0 181 0 182 88 -5 c52 -3 100 -12 119 -21z"/>
<path d="M8285 1778 c-4 -106 -5 -220 -3 -253 l3 -60 188 -3 187 -2 0 39 0 39
-142 -1 -143 -2 -3 73 -3 72 116 0 115 0 0 35 0 35 -115 0 -115 0 0 75 0 74
148 3 147 3 3 33 3 32 -189 0 -190 0 -7 -192z"/>
</g>
</svg>
